<svg fill="#fff" height="24" viewBox="0 0 24 24" width="24" xmlns="http://www.w3.org/2000/svg"><g stroke="#000" stroke-width="1.5"><path d="m8 16c0 2.8284 0 4.2426.87868 5.1213s2.29292.8787 5.12132.8787h1c2.8284 0 4.2426 0 5.1213-.8787s.8787-2.2929.8787-5.1213v-8c0-2.82843 0-4.24264-.8787-5.12132s-2.2929-.87868-5.1213-.87868h-1c-2.8284 0-4.24264 0-5.12132.87868s-.87868 2.29289-.87868 5.12132" stroke-linecap="round"/><path d="m8 19.5c-2.35702 0-3.53553 0-4.26777-.7322-.73223-.7323-.73223-1.9108-.73223-4.2678v-5c0-2.35702 0-3.53553.73223-4.26777.73224-.73223 1.91075-.73223 4.26777-.73223"/><path d="m6 12h9m0 0-2.5 2.5m2.5-2.5-2.5-2.5" stroke-linecap="round" stroke-linejoin="round"/></g></svg>